Coordinates
version=1
nRows=12
nColumns=34
inDegrees=no

Units are S.I. units (second, meters, Newtons, ...)
If the header above contains a line with 'inDegrees', this indicates whether rotational values are in degrees (yes) or radians (no).

endheader
time	pelvis_tilt	pelvis_list	pelvis_rotation	pelvis_tx	pelvis_ty	pelvis_tz	hip_flexion_r	hip_adduction_r	hip_rotation_r	knee_angle_r	ankle_angle_r	subtalar_angle_r	mtp_angle_r	hip_flexion_l	hip_adduction_l	hip_rotation_l	knee_angle_l	ankle_angle_l	subtalar_angle_l	mtp_angle_l	lumbar_extension	lumbar_bending	lumbar_rotation	arm_flex_r	arm_add_r	arm_rot_r	elbow_flex_r	pro_sup_r	arm_flex_l	arm_add_l	arm_rot_l	elbow_flex_l	pro_sup_l
0.87	0.0386466	0.0711985	-0.0401306	0.964225	0.964998	-0.252891	0.479219	-0.139035	-0.0232707	0.912399	0.0527556	-0.359537	-0.0155592	-0.0192845	0.156602	-0.0477351	0.170161	0.246552	-0.0741416	-0.0180438	-0.15258	-0.0742434	-0.0971124	-0.112914	-0.113449	-0.191912	0.525317	2.06462	0.131036	-0.193553	0.0357458	0.755168	1.76108
0.88	0.0386185	0.0679118	-0.035157	0.975846	0.964969	-0.253451	0.484768	-0.135234	-0.0323713	0.856511	0.0637417	-0.354393	-0.0155624	-0.0401028	0.15418	-0.0411195	0.158169	0.254455	-0.0670106	-0.0180361	-0.154728	-0.0696299	-0.100839	-0.122952	-0.112979	-0.203311	0.51821	2.06455	0.153687	-0.196567	0.0531612	0.775463	1.7607
0.89	0.0384551	0.0653953	-0.0303719	0.987483	0.964677	-0.253905	0.488489	-0.131988	-0.0419375	0.79795	0.0741135	-0.345373	-0.0155656	-0.0603845	0.152171	-0.0350735	0.14693	0.262727	-0.0597099	-0.0180283	-0.156666	-0.0661939	-0.104207	-0.133209	-0.112141	-0.214825	0.51244	2.06459	0.176118	-0.199886	0.0701243	0.795777	1.75979
0.9	0.0382795	0.063586	-0.0257903	0.999148	0.964134	-0.254251	0.490317	-0.129154	-0.0520551	0.737252	0.0843118	-0.33129	-0.0155688	-0.0803409	0.150531	-0.0295648	0.136391	0.271385	-0.0521753	-0.0180205	-0.158548	-0.063856	-0.107267	-0.143634	-0.110931	-0.226369	0.507975	2.06469	0.19828	-0.203417	0.0864839	0.815992	1.75836
0.91	0.0382017	0.0623966	-0.0213935	1.01085	0.963356	-0.25449	0.490229	-0.12659	-0.0628582	0.675018	0.094687	-0.311248	-0.0155721	-0.100161	0.149182	-0.024595	0.1265	0.280452	-0.0442874	-0.0180127	-0.160512	-0.0625021	-0.110093	-0.154163	-0.109361	-0.237844	0.504742	2.06484	0.220112	-0.207062	0.102086	0.835996	1.75648
0.92	0.0383124	0.0617246	-0.0171387	1.02261	0.962359	-0.254625	0.488272	-0.124149	-0.0744908	0.611935	0.105493	-0.28477	-0.0155753	-0.119984	0.148013	-0.0202181	0.117236	0.289953	-0.0358742	-0.018005	-0.162669	-0.061996	-0.112769	-0.164711	-0.107454	-0.249134	0.502615	2.06501	0.241538	-0.210731	0.116784	0.855693	1.75431
0.93	0.0386822	0.061459	-0.0129705	1.03442	0.961165	-0.254659	0.484568	-0.121693	-0.0870675	0.548795	0.116887	-0.251891	-0.0155785	-0.139891	0.146891	-0.0165476	0.108625	0.299919	-0.0267241	-0.0179972	-0.165107	-0.0621893	-0.115382	-0.175177	-0.105245	-0.260103	0.501424	2.06517	0.262467	-0.214342	0.130448	0.874999	1.75205
0.94	0.0393643	0.0614849	-0.00883337	1.04631	0.959793	-0.254596	0.479314	-0.11909	-0.100639	0.486504	0.128933	-0.213192	-0.0155817	-0.159897	0.145671	-0.0137498	0.10075	0.310378	-0.0166125	-0.0179894	-0.167886	-0.0629262	-0.118005	-0.185446	-0.102783	-0.270601	0.500968	2.06532	0.282799	-0.217819	0.142958	0.893847	1.74998
0.95	0.0403994	0.0616856	-0.004683	1.05827	0.958271	-0.254442	0.472769	-0.116221	-0.115167	0.42607	0.141599	-0.169787	-0.015585	-0.179961	0.144202	-0.0120254	0.0937497	0.321333	-0.00533869	-0.0179817	-0.171048	-0.0640437	-0.120692	-0.195396	-0.100132	-0.280463	0.501029	2.06546	0.302417	-0.221087	0.154195	0.91218	1.74839
0.96	0.0418194	0.0619408	-0.000496137	1.07031	0.956624	-0.254201	0.465228	-0.112981	-0.130517	0.36857	0.154754	-0.123259	-0.0155882	-0.199996	0.14234	-0.0115831	0.0878125	0.332755	0.00723313	-0.0179739	-0.174617	-0.0653664	-0.123464	-0.204908	-0.0973747	-0.289525	0.501391	2.06558	0.321188	-0.224063	0.164034	0.929956	1.74758
0.97	0.0436486	0.0621239	0.00372179	1.08245	0.954885	-0.25388	0.456997	-0.10928	-0.146458	0.315098	0.168153	-0.0755364	-0.0155914	-0.219888	0.139949	-0.0126104	0.0831583	0.344565	0.0211359	-0.0179662	-0.178598	-0.066701	-0.126306	-0.213872	-0.0946166	-0.297635	0.501858	2.06568	0.33896	-0.226653	0.17234	0.947148	1.7478
0.98	0.0459013	0.0620975	0.00793199	1.09469	0.953083	-0.253485	0.44837	-0.105041	-0.16267	0.266705	0.181421	-0.0287399	-0.0155946	-0.239498	0.136904	-0.0152481	0.0800191	0.356623	0.0362734	-0.0179584	-0.182975	-0.067832	-0.12917	-0.222195	-0.0919812	-0.30467	0.502264	2.06577	0.35556	-0.228755	0.178974	0.963748	1.74922
